<svg version="1.2" baseProfile="tiny" xmlns="http://www.w3.org/2000/svg" width="24" height="24" viewBox="0 0 24 24"><path fill="#EF4881" d="M16.5 10.8l-3.5-2 3.5-2"/><path fill="#EF558B" d="M13 4.8l3.5 2-3.5 2"/><path fill="#E53C74" d="M13 8.8l3.5 2-3.5 2.1"/><path fill="#B42F5C" d="M13 12.9l3.5 2-3.5 2"/><path fill="#812241" d="M13 16.9l3.5 2-3.5 2"/><path fill="#9B284F" d="M16.5 18.9l-3.5-2 3.5-2"/><path fill="#CE3568" d="M16.5 14.9l-3.5-2 3.5-2.1"/><path fill="#6575B8" d="M23.5 10.9L20 8.8l3.5-2"/><path fill="#F06697" d="M16.5 6.8l-3.5-2 3.5-2"/><path fill="#4656A6" d="M20 8.8l-3.5-2 3.5-2"/><path fill="#35469B" d="M20 12.9l-3.5-2L20 8.8"/><path fill="#304290" d="M20 4.8l-3.5 2v-4"/><path fill="#28387E" d="M20 12.9l-3.5 2v-4.1"/><path fill="#7784C1" d="M23.5 6.8l-3.5 2v-4"/><path fill="#5465AE" d="M23.5 10.9l-3.5 2V8.8"/><path fill="#EF4881" d="M7.5 10.8l3.5-2-3.5-2"/><path fill="#EF558B" d="M11 4.8l-3.5 2 3.5 2"/><path fill="#E53C74" d="M11 8.8l-3.5 2 3.5 2.1"/><path fill="#B42F5C" d="M11 12.9l-3.5 2 3.5 2"/><path fill="#812241" d="M11 16.9l-3.5 2 3.5 2"/><path fill="#9B284F" d="M7.5 18.9l3.5-2-3.5-2"/><path fill="#CE3568" d="M7.5 14.9l3.5-2-3.5-2.1"/><path fill="#6575B8" d="M.5 10.9L4 8.8l-3.5-2"/><path fill="#F06697" d="M7.5 6.8l3.5-2-3.5-2"/><path fill="#4656A6" d="M4 8.8l3.5-2-3.5-2"/><path fill="#35469B" d="M4 12.9l3.5-2L4 8.8"/><path fill="#304290" d="M4 4.8l3.5 2v-4"/><path fill="#28387E" d="M4 12.9l3.5 2v-4.1"/><path fill="#7784C1" d="M.5 6.8l3.5 2v-4"/><path fill="#5465AE" d="M.5 10.9l3.5 2V8.8"/></svg>